<svg width="152" height="66" viewBox="0 0 152 66" fill="none" xmlns="http://www.w3.org/2000/svg">
<g filter="url(#filter0_di_85_146)">
<rect x="1" y="1" width="150" height="60" rx="18" fill="black"/>
<rect x="0.55" y="0.55" width="150.9" height="60.9" rx="18.45" stroke="black" stroke-width="0.9"/>
</g>
<path d="M42.7926 25.4102L44.4168 25.4617L45.0226 30.2055L46.5373 25.6615L47.2012 25.7002L47.923 30.5857L49.2314 25.7711L51.0168 25.9516L48.226 35.6969L47.4074 35.6389L46.4986 31.2754L45.1258 35.51L44.1525 35.4455L42.7926 25.4102ZM52.9633 25.5584L54.8066 25.5326L55.1482 29.677L57.9391 29.4385L57.8295 25.3973L59.892 25.2941L60.4205 35.4068L58.358 35.51L58.1195 31.2883L55.2449 31.4816L55.3351 35.6518L53.4853 35.6711L52.9633 25.5584ZM62.7924 25.2426H64.9193L65.074 35.8H62.7924V25.2426ZM67.2267 25.8871L74.0523 25.3199L74.1168 26.9699L71.558 27.1568L72.0994 35.5615L70.5267 35.6711L69.7533 27.2729L67.3105 27.55L67.2267 25.8871ZM76.2437 25.5326L82.0896 25.3457L82.0381 26.8668L77.984 26.8926L78.2482 30.1346L81.5224 29.8703L81.632 31.4688L78.3836 31.443L78.6092 34.5754L82.3539 34.4529L82.4055 35.51L76.4435 35.6389L76.2437 25.5326ZM89.1021 25.4488L92.4021 25.5197C92.8404 25.5283 93.2078 25.625 93.5043 25.8098C93.8051 25.9945 94.0478 26.2352 94.2326 26.5316C94.4174 26.8238 94.5463 27.1633 94.6193 27.55C94.6967 27.9367 94.731 28.3363 94.7224 28.7488C94.7053 29.1184 94.6322 29.4643 94.5033 29.7865C94.3744 30.1088 94.1875 30.3924 93.9426 30.6373C93.6976 30.8779 93.3947 31.0691 93.0338 31.2109C92.6728 31.3484 92.2582 31.4215 91.7898 31.4301L90.591 31.443L90.4556 35.6969H88.9152L89.1021 25.4488ZM90.9842 29.6898L91.4611 29.7027C91.7361 29.7113 91.9681 29.6877 92.1572 29.6318C92.3463 29.5717 92.4967 29.49 92.6084 29.3869C92.7244 29.2795 92.806 29.157 92.8533 29.0195C92.9006 28.8777 92.9285 28.7316 92.9371 28.5813C92.9371 28.4395 92.9178 28.2805 92.8791 28.1043C92.8404 27.9281 92.7695 27.7648 92.6664 27.6145C92.5676 27.4641 92.4279 27.3373 92.2474 27.2342C92.067 27.1268 91.8392 27.0688 91.5642 27.0602L90.9971 27.0473L90.9842 29.6898ZM101.857 34.6785L98.5058 34.4787L98.0611 35.4842L96.134 35.3746L100.233 25.4231L101.754 25.4488L104.145 35.6969L102.07 35.6131L101.857 34.6785ZM101.606 32.977L100.736 28.6457L99.1117 32.8158L101.606 32.977ZM106.053 25.4488L109.353 25.5197C109.792 25.5283 110.159 25.625 110.455 25.8098C110.756 25.9945 110.999 26.2352 111.184 26.5316C111.369 26.8238 111.497 27.1633 111.57 27.55C111.648 27.9367 111.682 28.3363 111.674 28.7488C111.656 29.1184 111.583 29.4643 111.454 29.7865C111.326 30.1088 111.139 30.3924 110.894 30.6373C110.649 30.8779 110.346 31.0691 109.985 31.2109C109.624 31.3484 109.209 31.4215 108.741 31.4301L107.542 31.443L107.407 35.6969H105.866L106.053 25.4488ZM107.935 29.6898L108.412 29.7027C108.687 29.7113 108.919 29.6877 109.108 29.6318C109.297 29.5717 109.448 29.49 109.56 29.3869C109.676 29.2795 109.757 29.157 109.804 29.0195C109.852 28.8777 109.88 28.7316 109.888 28.5813C109.888 28.4395 109.869 28.2805 109.83 28.1043C109.792 27.9281 109.721 27.7648 109.618 27.6145C109.519 27.4641 109.379 27.3373 109.199 27.2342C109.018 27.1268 108.79 27.0688 108.515 27.0602L107.948 27.0473L107.935 29.6898ZM113.743 25.5326L119.588 25.3457L119.537 26.8668L115.483 26.8926L115.747 30.1346L119.021 29.8703L119.131 31.4688L115.882 31.443L116.108 34.5754L119.853 34.4529L119.904 35.51L113.942 35.6389L113.743 25.5326ZM121.831 35.0846L122.586 25.3715L126.292 25.5713C126.515 25.5885 126.691 25.6057 126.82 25.6229C126.953 25.64 127.065 25.6615 127.155 25.6873C127.25 25.7131 127.336 25.7475 127.413 25.7904C127.495 25.8291 127.594 25.8699 127.71 25.9129C128.191 26.1063 128.556 26.4178 128.805 26.8475C128.865 26.9549 128.917 27.0988 128.96 27.2793C129.003 27.4598 129.033 27.6488 129.05 27.8465C129.072 28.0441 129.085 28.2418 129.089 28.4395C129.093 28.6371 129.091 28.8111 129.082 28.9615C129.035 29.4814 128.891 29.924 128.651 30.2893C128.41 30.6545 128.081 30.9424 127.664 31.1529C127.544 31.2131 127.364 31.2539 127.123 31.2754C126.887 31.2926 126.659 31.3184 126.44 31.3527C126.466 31.3957 126.524 31.4902 126.614 31.6363C126.708 31.7824 126.854 32.0188 127.052 32.3453C127.25 32.6676 127.512 33.1037 127.838 33.6537C128.165 34.2037 128.573 34.9148 129.063 35.7871L127.071 35.6518L125.293 32.7772C125.237 32.6912 125.174 32.5795 125.106 32.442C125.037 32.3045 124.964 32.1691 124.887 32.0359C124.813 31.8984 124.745 31.776 124.68 31.6686C124.62 31.5611 124.573 31.4902 124.538 31.4559C124.487 31.4215 124.448 31.3936 124.422 31.3721C124.401 31.3506 124.382 31.3377 124.364 31.3334C124.347 31.3291 124.321 31.3248 124.287 31.3205C124.253 31.3162 124.205 31.3141 124.145 31.3141L123.881 31.2883L123.507 35.2457L121.831 35.0846ZM124.062 29.2516L125.305 29.3289C125.34 29.3289 125.406 29.3332 125.505 29.3418C125.608 29.3461 125.722 29.3482 125.847 29.3482C125.967 29.3482 126.096 29.3461 126.234 29.3418C126.371 29.3332 126.487 29.3203 126.582 29.3031C126.779 29.2859 126.951 29.2022 127.097 29.0518C127.248 28.8971 127.331 28.7123 127.349 28.4975C127.357 28.4115 127.364 28.3342 127.368 28.2654C127.372 28.1924 127.366 28.1193 127.349 28.0463C127.331 27.9689 127.301 27.8895 127.258 27.8078C127.215 27.7219 127.145 27.6273 127.046 27.5242C126.977 27.4426 126.887 27.3781 126.775 27.3309C126.668 27.2836 126.549 27.2471 126.42 27.2213C126.292 27.1955 126.163 27.1762 126.034 27.1633C125.909 27.1504 125.793 27.1375 125.686 27.1246L124.248 27.0344L124.062 29.2516Z" fill="#CDC7AF"/>
<path fill-rule="evenodd" clip-rule="evenodd" d="M23.35 27.4C23.35 25.826 24.626 24.55 26.2 24.55H31C32.574 24.55 33.85 25.826 33.85 27.4V34.6C33.85 36.174 32.574 37.45 31 37.45H26.2C24.626 37.45 23.35 36.174 23.35 34.6V27.4ZM26.2 27.55C25.9515 27.55 25.75 27.7515 25.75 28C25.75 28.2485 25.9515 28.45 26.2 28.45H31C31.2485 28.45 31.45 28.2485 31.45 28C31.45 27.7515 31.2485 27.55 31 27.55H26.2ZM25.75 31C25.75 30.7515 25.9515 30.55 26.2 30.55H31C31.2485 30.55 31.45 30.7515 31.45 31C31.45 31.2485 31.2485 31.45 31 31.45H26.2C25.9515 31.45 25.75 31.2485 25.75 31ZM26.2 33.55C25.9515 33.55 25.75 33.7515 25.75 34C25.75 34.2485 25.9515 34.45 26.2 34.45H28.6C28.8485 34.45 29.05 34.2485 29.05 34C29.05 33.7515 28.8485 33.55 28.6 33.55H26.2Z" fill="#CDC7AF"/>
<defs>
<filter id="filter0_di_85_146" x="0.100006" y="0.0999985" width="151.8" height="65.4" filterUnits="userSpaceOnUse" color-interpolation-filters="sRGB">
<feFlood flood-opacity="0" result="BackgroundImageFix"/>
<feColorMatrix in="SourceAlpha" type="matrix" values="0 0 0 0 0 0 0 0 0 0 0 0 0 0 0 0 0 0 127 0" result="hardAlpha"/>
<feOffset dy="3.6"/>
<feComposite in2="hardAlpha" operator="out"/>
<feColorMatrix type="matrix" values="0 0 0 0 0 0 0 0 0 0 0 0 0 0 0 0 0 0 0.38 0"/>
<feBlend mode="normal" in2="BackgroundImageFix" result="effect1_dropShadow_85_146"/>
<feBlend mode="normal" in="SourceGraphic" in2="effect1_dropShadow_85_146" result="shape"/>
<feColorMatrix in="SourceAlpha" type="matrix" values="0 0 0 0 0 0 0 0 0 0 0 0 0 0 0 0 0 0 127 0" result="hardAlpha"/>
<feOffset dy="2.4"/>
<feComposite in2="hardAlpha" operator="arithmetic" k2="-1" k3="1"/>
<feColorMatrix type="matrix" values="0 0 0 0 0.803922 0 0 0 0 0.784314 0 0 0 0 0.690196 0 0 0 1 0"/>
<feBlend mode="normal" in2="shape" result="effect2_innerShadow_85_146"/>
</filter>
</defs>
</svg>
